<?xml version="1.0" encoding="utf-8"?>
<svg version="1.1" id="Layer_1" xmlns="http://www.w3.org/2000/svg" xmlns:xlink="http://www.w3.org/1999/xlink" x="0px" y="0px"
	 viewBox="0 0 4000 1000" style="enable-background:new 0 0 4000 1000;" xml:space="preserve">
<style type="text/css">
	.st0{fill:#515151;}
	.st1{fill:#6366F1;}
	.st2{fill:none;stroke:#515151;strokeWidth:7;strokeMiterlimit:10;}
</style>
<path class="st0" d="M2584.6,374.2v250h-55.7c-15.8,0-28.8-5-39-15.2c-10-10.1-15.1-23.2-15.1-39.2V351.8c0-25.7-7.7-44.3-23-56.2
	c-15.4-11.7-32.6-17.6-51.6-17.6c-19.1,0-36,5.9-50.8,17.6c-14.9,11.8-22.3,30.5-22.3,56.2v272.3h-57.2c-14.8,0-27.6-5.3-38.1-15.9
	c-10.6-10.7-15.9-23.6-15.9-38.5V374.2c0-72.7,18.8-121.2,56.5-145.8c37.6-24.5,79.2-37.9,124.8-40.1c46.5,0,89.5,12.3,128.7,36.9
	C2565,249.8,2584.6,299.4,2584.6,374.2z"/>
<path class="st0" d="M311.8,446V196h55.7c15.8,0,28.8,5,39,15.2c10,10.1,15.1,23.2,15.1,39.2v217.9c0,25.7,7.7,44.3,23,56.2
	c15.4,11.7,32.6,17.6,51.6,17.6c19.1,0,36-5.9,50.8-17.6c14.9-11.8,22.3-30.5,22.3-56.2V196h57.2c14.8,0,27.6,5.3,38.1,15.9
	c10.6,10.7,15.9,23.6,15.9,38.5V446c0,72.7-18.8,121.2-56.5,145.8c-37.6,24.5-79.2,37.9-124.8,40.1c-46.5,0-89.5-12.3-128.7-36.9
	C331.5,570.4,311.8,520.8,311.8,446z"/>
<path class="st1" d="M2309.2,986.1c-12.6,0-26.1-3-40.3-9c-17.1-6.9-36.1-18.4-58.3-35c-20.5-15.4-41.1-32.5-61.5-51
	c-16.8-15.2-33.1-31.4-48.5-48.1c-16.4-17.7-28.8-33.5-38.1-48.1c-12.3-19.3-27.8-48.5-18.2-76.8c8.4-24.6,29.6-38.8,56.8-38.5
	l1.4,0.1c21.5,1.3,46.7,11.7,77,31.8c23.7,15.4,49.8,35.9,77.2,60.8c19.7,17.9,36.5,34.4,49.7,48.9c13.4,14.7,24.4,28.1,32.8,39.9
	c20.9,30,29.4,52.5,27.5,72.7c-1.2,25.7-17,45-41.6,50.5C2320,985.6,2314.7,986.1,2309.2,986.1z"/>
<path class="st1" d="M2704.4,580.7c-21.8-18.6-37.4-43.6-46.7-75.1c-9.3-31.5-14-64.3-14-98.3c0-27.9,3.9-55.7,11.7-83.6
	c7.8-27.9,20-51.1,36.6-69.7c27-31,61.7-49.3,104.3-55c42.5-5.7,81-2.3,115.2,10.1c39.4,15.5,68.5,42.3,87.2,80.5
	c17.6,34.1,26.5,73.8,26.5,119.2c0,6.2-0.2,22.2-2.5,41.6c-1.1,9.1-1.6,14.7-3.2,21.4c-2.6,10.9-6.3,19.5-9.2,25.2
	c-8.8,3.2-35.2,14.1-53.6,42.7c-15.4,23.9-17,47.4-17.1,57.4c-3.3,1.9-6.6,3.8-9.9,5.7c-11.7,5.8-17.6,8.7-17.6,8.7
	c6.9-2.2-13.8,4.6-20.8,6.5c-25.6,6.6-48.8,7.5-50,7.5c-17.8,0.5-35.6-1.2-53.5-5.2C2752.9,612.5,2725.1,599.3,2704.4,580.7z
	 M2782.3,308.2c-21.8,23.8-31.7,59.1-29.6,106.1c2.1,47,10.9,79.7,26.5,98.3c6.2,8.3,17.1,15.2,32.7,20.9
	c15.6,5.7,31.4,6.2,47.5,1.5c16.1-4.6,30.4-16.3,42.8-34.8c12.5-18.6,19.2-48.5,20.2-89.8c0-37.2-6-65-17.9-83.6
	c-11.9-18.6-25.7-30.4-41.3-35.6c-15.6-5.2-31.1-5.4-46.7-0.8C2800.9,295.1,2789.5,301,2782.3,308.2z"/>
<g>
	<path class="st1" d="M3044,590.4c0,4.5-0.5,8.3-1.5,11.8c-1,3.4-2.3,6.5-4,9.1c-4.1,5.8-9.4,9.5-15.6,10.9c-2.4,0.7-5,1.1-7.7,1.1
		c-2.3,0-4.7-0.3-7.1-0.8c-5.1-1.2-9.4-3.4-12.7-6.5c-3.5-3.2-6.1-7.5-7.5-12.6c-1.2-4.2-1.8-8.5-1.8-13.1c0-3.8,0.5-7.6,1.5-11.4
		c1.1-4.4,3-8.1,5.6-11.2c4.2-5,9.9-8.3,16.6-9.2c5.9-0.8,11.4-0.3,16.4,1.6c6.5,2.7,11.3,7.3,14.2,13.6
		C3042.8,578.4,3044,584,3044,590.4z"/>
</g>
<path class="st0" d="M843,212.1c10.6,10.7,15.8,23.4,15.8,38.5v371.8h-57.2c-14.8,0-27.6-5.4-38.1-16.1
	c-10.6-10.7-15.9-23.4-15.9-38.5V196h57.2C819.7,196,832.3,201.4,843,212.1z M843,87c-10.7-10.6-23.4-15.9-38.3-15.9h-57.2v88.2
	h111.3v-33.6C858.8,110.6,853.6,97.8,843,87z"/>
<path class="st0" d="M1294.3,125.2v33.6h-111.2V70.7h57.2c14.8,0,27.6,5.4,38.1,16.1C1289,97.4,1294.3,110.2,1294.3,125.2z
	 M1240.3,195.6h-57.2v371.8c0,15,5.2,27.8,15.8,38.5c10.7,10.7,23.4,16.1,38.3,16.1h57.1V250.1c0-15-5.2-27.8-15.8-38.5
	C1267.9,201,1255.1,195.6,1240.3,195.6z"/>
<path class="st1" d="M3192.4,721c0,15.1-5.4,28.1-16.1,38.9c-10.7,10.8-23.6,16.2-38.6,16.2h-54.6V372.9
	c0-75.6,21.9-127.1,65.8-154.6c43.9-27.5,91.6-41.3,142.9-41.3c26.8,0,53.8,5.1,81.1,15.4c27.3,10.3,49,25.1,65.1,44.5
	c32.1,42.1,48.2,96.1,48.2,161.9c0,68-16.1,123.1-48.2,165.2c-32.1,41-73.4,61.5-123.7,61.5c-26.8,0-50.3-4.9-70.7-14.6
	c-21.4-10.8-38.5-27.5-51.4-50.2V721z M3375.5,403.7c0-42.1-8-74.5-24.1-97.2c-16.1-22.7-39.1-34-69.1-34c-28.9,0-51.4,11.3-67.5,34
	c-15,20.5-22.5,52.9-22.5,97.2c0,41,8,71.8,24.1,92.3c16.1,22.7,39.1,34,69.1,34c27.8,0,49.8-11.3,65.9-34
	C3367.5,473.3,3375.5,442.5,3375.5,403.7z"/>
<path class="st1" d="M3627.7,721c0,15.1-5.4,28.1-16.1,38.9c-10.7,10.8-23.6,16.2-38.6,16.2h-54.6V372.9
	c0-75.6,21.9-127.1,65.8-154.6c43.9-27.5,91.6-41.3,142.9-41.3c26.8,0,53.8,5.1,81.1,15.4c27.3,10.3,49,25.1,65.1,44.5
	c32.1,42.1,48.2,96.1,48.2,161.9c0,68-16.1,123.1-48.2,165.2c-32.1,41-73.4,61.5-123.7,61.5c-26.8,0-50.3-4.9-70.7-14.6
	c-21.4-10.8-38.5-27.5-51.4-50.2V721z M3824.2,403.7c0-42.1-8-74.5-24.1-97.2c-16.1-22.7-39.1-34-69.1-34c-28.9,0-51.4,11.3-67.5,34
	c-15,20.5-22.5,52.9-22.5,97.2c0,41,8,71.8,24.1,92.3c16.1,22.7,39.1,34,69.1,34c27.8,0,49.8-11.3,65.9-34
	C3816.2,473.3,3824.2,442.5,3824.2,403.7z"/>
<path class="st0" d="M1129.3,252.6v33.6h-55.7v336.1h-57.2c-14.8,0-27.6-5.4-38.1-16.1c-10.6-10.7-15.9-23.4-15.9-38.5V286.2h-1.5
	c-14.9,0-27.6-5.4-38.1-16.1c-10.6-10.7-15.9-23.6-15.9-38.5V198h55.6V70.2h57.2c14.9,0,27.6,5.3,38.3,15.9
	c10.6,10.8,15.8,23.6,15.8,38.5V198h1.6c14.8,0,27.6,5.4,38.1,16.1C1124,224.8,1129.3,237.5,1129.3,252.6z"/>
<path class="st0" d="M271.5,252.3V286h-55.7v336.1h-57.2c-14.8,0-27.6-5.4-38.1-16.1s-15.9-23.4-15.9-38.5V286H103
	c-14.9,0-27.6-5.4-38.1-16.1C54.3,259.3,49,246.4,49,231.5v-33.6h55.6V70h57.2c14.9,0,27.6,5.3,38.3,15.9
	c10.6,10.8,15.8,23.6,15.8,38.5v73.4h1.6c14.8,0,27.6,5.4,38.1,16.1C266.2,224.6,271.5,237.3,271.5,252.3z"/>
<path class="st1" d="M1756.8,792.7c-213.5,0-387.3-175.2-387.3-390.4c0-215.3,173.7-390.4,387.3-390.4
	c213.6,0,387.3,175.2,387.3,390.4C2144.1,617.6,1970.3,792.7,1756.8,792.7z M1756.8,106.1c-162,0-293.8,132.9-293.8,296.2
	c0,163.3,131.8,296.2,293.8,296.2c162,0,293.8-132.9,293.8-296.2C2050.6,239,1918.8,106.1,1756.8,106.1z"/>
<path class="st2" d="M182.1,250"/>
</svg>
